inDegrees=no
num_controls=7
num_derivatives=13
num_iterations=178
num_multipliers=7
num_parameters=0
num_slacks=7
num_states=26
objective=5.880475
objective_accelerations=0.536516
objective_balance=0.052731
objective_effort=0.492790
objective_height=4.774640
objective_ligament=0.023798
solver_duration=1850.805751
status=Solve_Succeeded
success=true
DataType=double
version=3
OpenSimVersion=4.4-2022-07-23-0e9fedc
endheader
time	/jointset/ground_pelvis/pelvis_tilt/value	/jointset/ground_pelvis/pelvis_tx/value	/jointset/ground_pelvis/pelvis_ty/value	/jointset/hip_l/hip_flexion_l/value	/jointset/hip_l/hip_adduction_l/value	/jointset/hip_l/hip_rotation_l/value	/jointset/back/lumbar_extension/value	/jointset/patellofemoral_l/patellar_flexion_l/value	/jointset/knee_l/knee_flexion_l/value	/jointset/knee_l/knee_adduction_l/value	/jointset/knee_l/knee_rotation_l/value	/jointset/ankle_l/ankle_angle_l/value	/jointset/subtalar_l/subtalar_angle_l/value	/jointset/ground_pelvis/pelvis_tilt/speed	/jointset/ground_pelvis/pelvis_tx/speed	/jointset/ground_pelvis/pelvis_ty/speed	/jointset/hip_l/hip_flexion_l/speed	/jointset/hip_l/hip_adduction_l/speed	/jointset/hip_l/hip_rotation_l/speed	/jointset/back/lumbar_extension/speed	/jointset/patellofemoral_l/patellar_flexion_l/speed	/jointset/knee_l/knee_flexion_l/speed	/jointset/knee_l/knee_adduction_l/speed	/jointset/knee_l/knee_rotation_l/speed	/jointset/ankle_l/ankle_angle_l/speed	/jointset/subtalar_l/subtalar_angle_l/speed	/forceset/tau_hip_flexion_l	/forceset/tau_hip_adduction_l	/forceset/tau_hip_rotation_l	/forceset/tau_knee_flexion_l	/forceset/tau_ankle_angle_l	/forceset/tau_subtalar_angle_l	/forceset/tau_lumbar_extension	lambda_cid13_p0	lambda_cid13_p1	lambda_cid13_p2	lambda_cid13_p3	lambda_cid13_p4	lambda_cid13_p5	lambda_cid14_p0	/jointset/ground_pelvis/pelvis_tilt/accel	/jointset/ground_pelvis/pelvis_tx/accel	/jointset/ground_pelvis/pelvis_ty/accel	/jointset/hip_l/hip_flexion_l/accel	/jointset/hip_l/hip_adduction_l/accel	/jointset/hip_l/hip_rotation_l/accel	/jointset/back/lumbar_extension/accel	/jointset/patellofemoral_l/patellar_flexion_l/accel	/jointset/knee_l/knee_flexion_l/accel	/jointset/knee_l/knee_adduction_l/accel	/jointset/knee_l/knee_rotation_l/accel	/jointset/ankle_l/ankle_angle_l/accel	/jointset/subtalar_l/subtalar_angle_l/accel	gamma_cid13_p0	gamma_cid13_p1	gamma_cid13_p2	gamma_cid13_p3	gamma_cid13_p4	gamma_cid13_p5	gamma_cid14_p0
1.5	8.648383477393412e-05	-0.01121718411292607	0.8550164566128806	0.6684061430507637	-0.3253353828483715	-0.1336028121068765	-0.7955090320459908	0.7564331774371099	0.7564331774370672	-0.1154283442717989	-0.1744197774419175	0.1424786286452713	0.01678407253059539	0.3481281221532467	0.2321607962443001	0.4071405164998452	-1.971349308809721	0.08404516771298845	-0.637395947278887	0.8389103600545276	-1.934803703166057	-1.934803703166102	-0.1329364882101234	0.003824148146597871	-0.4309064028242786	-0.05208093021796679	-0.2013466507709888	0.01521199145121119	-0.003175127191073078	-0.2158087564196804	0.05845233296083144	0.04904454374904684	0.2807125863661098	-23.13345757013834	-20.01437525813109	5.894633122815402	-7.003232677988846	-670.0075346799372	-83.0004416470307	-16.04349122720593	-0.02719967683125394	0.6332893611828718	-0.5902766866860434	-0.6575062867872878	0.5098331526251718	-0.2850832357956193	1.92501243166597	-0.9484855460919819	-0.9484855460919823	-0.1990681685314298	0.1239539276571187	-0.2243007927635658	0.5052794841596305	1.489213793043907e-07	1.471311626269509e-06	-3.231358547028787e-07	1.468148036283814e-07	2.544142835436281e-07	5.051592547781178e-07	1.981305073223777e-07
1.51	0.003566233361287816	-0.00886411078599676	0.8590575920786803	0.6486614426866214	-0.3244702113792198	-0.1399913468246611	-0.7870251601344465	0.7370398322667919	0.7370398322667355	-0.1167686311593267	-0.1743769589649097	0.1381587457253966	0.01628768589262201	0.3477733675719883	0.2384299324426281	0.4010059050861154	-1.977336659043896	0.08899199214159256	-0.6402369862499411	0.857749411737678	-1.943602530350384	-1.943602530350476	-0.1351095164463156	0.004748335881598107	-0.4329883938875183	-0.04717383985101523	-0.1938591970016031	0.01426236541540461	-0.003087607732501366	-0.212645767498678	0.05956815019720282	0.04832722180950982	0.2735783686472614	-22.55679942709693	-19.82727636212428	5.891607193262353	-7.012305711333367	-665.7233557551662	-82.94011475222385	-16.72112738600946	-0.04686919041992253	0.6201578395347748	-0.637087447505707	-0.5312241765618524	0.4874380698591997	-0.2722942882566894	1.846159959251929	-0.8062069622670927	-0.8062069622743022	-0.2244891529799628	0.07785489259462082	-0.1878295357857387	0.4866362368175904	1.789955089790183e-07	1.484900118146102e-06	-4.82995663602007e-07	1.244811900059052e-07	3.064699215935009e-07	5.523396703931441e-07	2.183087090615413e-07
1.52	0.007040984173663473	-0.006449059679008625	0.8630349746145846	0.6288644938631662	-0.3235555054694124	-0.1464060279442581	-0.7783563360215493	0.7175663736930341	0.717566373693078	-0.1181302621294822	-0.1743246578713975	0.133820506640352	0.0158410126430888	0.3471283793248629	0.244556352256066	0.3943899305208209	-1.981799000671239	0.09395205584545771	-0.6426252276408685	0.8759008003253212	-1.950826383841277	-1.950826383841417	-0.137205304755197	0.005720671463531168	-0.4345776358580201	-0.04213825252987857	-0.1863717432322712	0.01331273937956609	-0.003000088273104778	-0.2094827785777323	0.06068396743356254	0.04760989986992605	0.266444150928376	-21.9789205146078	-19.64172940327356	5.890357884000182	-7.059123315207477	-661.4541665068889	-82.91759417043919	-17.38982557669208	-0.08524641000457475	0.6047460842048523	-0.68654931699899	-0.3525045654208966	0.5124810076772601	-0.1945237197703779	1.787479812564615	-0.6334908074053944	-0.6334908074053919	-0.1836201830692797	0.1335834970436039	-0.1257509742159388	0.5309788749966219	1.855621622905441e-07	1.526222409134337e-06	-5.291054741273957e-07	1.226685916155738e-07	3.264685319387028e-07	5.799086303638695e-07	2.266198313463186e-07
1.53	0.01050783025490982	-0.003973503755398898	0.8669438637101915	0.6090305573963557	-0.3225910966226507	-0.1528424823854618	-0.7695094693648331	0.6980285987438325	0.6980285987439042	-0.1195122563637586	-0.1742624315697121	0.1294688945156959	0.01544540756534712	0.3461949449732231	0.2505258967829386	0.387315503696097	-1.984736684520742	0.09893053843066511	-0.6445750944066508	0.8933498878845095	-1.95646430902875	-1.956464309028749	-0.1391844652841983	0.006747931196603304	-0.4356596723123951	-0.0369616725902551	-0.178946772577999	0.01242360157045285	-0.0029515204569743	-0.2064310796331112	0.06177816517809616	0.04670171435567837	0.2593764573705949	-21.43548655911218	-19.35998369755222	5.865460650617538	-7.02688551472848	-657.4841900744412	-82.73508474547346	-18.05040211346744	-0.1042747054183952	0.5887489568618258	-0.7286861251802402	-0.2266564191627977	0.4905127897692981	-0.1814257890000061	1.705226757692719	-0.4893428339271545	-0.4893428339059744	-0.2034488114385229	0.09070935992522219	-0.08661049216943191	0.513950033098737	1.671521219662745e-07	1.59701186167869e-06	-4.543559113806875e-07	1.426595719093958e-07	3.124065503476922e-07	5.866404187125254e-07	2.223221817108107e-07
1.54	0.0139639654411091	-0.001439114322533648	0.8707798491855568	0.5891747928661489	-0.3215769067688702	-0.1592956770211519	-0.7604917911265062	0.6784423646509049	0.6784423646509127	-0.1209137191681311	-0.1741892502408772	0.1251090259242674	0.01510215878293211	0.3449862003145914	0.2563230541071704	0.3798092064725341	-1.986164613348162	0.1039082572489788	-0.6459732665331425	0.9100631166475678	-1.96051821259658	-1.960518212596438	-0.141099018758128	0.007911676869111151	-0.4362289292116175	-0.0316669934644954	-0.1715218019238494	0.01153446376122696	-0.002902952641583374	-0.2033793806884955	0.06287236292259292	0.04579352884129698	0.2523087638127546	-20.89221363249343	-19.07966401316437	5.842452540886252	-7.026232381319828	-653.5474015239631	-82.58852830114178	-18.69646462558708	-0.1403084714028859	0.5702686436766812	-0.7729233967667829	-0.05055356100432201	0.5123282542985448	-0.08418479191229337	1.64030805333873	-0.3166864834767052	-0.3166864834767045	-0.1706987720550097	0.1608806849307078	-0.02319506318541354	0.5545987122238403	1.431910654539473e-07	1.647232531176099e-06	-3.655623381946496e-07	1.637246401588757e-07	2.871688644241915e-07	5.809388861827909e-07	2.141703620329708e-07
1.55	0.017406528896847	0.001152310476369272	0.8745386521179963	0.5693125633074099	-0.3205129388424908	-0.1657604165028405	-0.7513106744225764	0.6588237200550667	0.6588237200550361	-0.1223336955676961	-0.1741040073914313	0.1207460816012037	0.01481248383213792	0.3434803975576376	0.2619251983742572	0.3718858847360379	-1.986022848783071	0.1088752924090975	-0.6468885218757281	0.9260218012392427	-1.962937753055299	-1.96293775305519	-0.142890899466444	0.009146476654710575	-0.4362761536313912	-0.02625944151579548	-0.1640585813004364	0.01049633006153296	-0.002904682457499313	-0.200411872018316	0.06389406117838327	0.04485174777163743	0.2451996677123355	-20.38848734148021	-18.77625098534714	5.813959099479405	-6.92678183362059	-649.8078342096159	-82.43854668571399	-19.31820301788693	-0.1626352552196124	0.5497209068863437	-0.8118152778942118	0.08530321535214035	0.4872019619694034	-0.08210146660382134	1.552885227324559	-0.1636837162163907	-0.1636837162214739	-0.1823569654234231	0.1061647723521803	0.01713038432161115	0.5348730267993348	1.128342728988587e-07	1.673754385423769e-06	-2.605876225459066e-07	1.860272445311789e-07	2.490548235089094e-07	5.609120056844771e-07	2.015778681759224e-07
1.56	0.0208326505095431	0.003798663435675446	0.8782162660899102	0.5494595037443352	-0.3193996384014901	-0.1722316896501886	-0.7419741235596821	0.6391890608768153	0.6391890608767411	-0.1237713756234107	-0.1740061395146921	0.1163851883370824	0.01457709231895189	0.3416978317055527	0.2673086861878209	0.3635714143674329	-1.984330614214534	0.1137747601732507	-0.6472799996651954	0.9411499484406223	-1.963721129079895	-1.96372112907982	-0.1446397499829005	0.01043668231941147	-0.4358187174233665	-0.02081030594284432	-0.1565953606770602	0.009458196361841864	-0.002906412273693943	-0.1974443633481271	0.06491575943417721	0.04390996670198682	0.2380905716118854	-19.8884511404309	-18.47259473694541	5.785887634670034	-6.843617958024112	-646.1486281028667	-82.32154353526985	-19.9114044311321	-0.1956610904290257	0.5265373529720784	-0.8511531231885457	0.2595404396847829	0.4988147751054497	0.02057071871133385	1.47420057527973	0.01054640334795271	0.01054640334795271	-0.162092733683102	0.171961860750974	0.07773706237427679	0.5629154370740727	9.122377542074934e-08	1.692865782686791e-06	-1.933371309661798e-07	2.000119410596678e-07	2.267326101424136e-07	5.482412493044764e-07	1.92937208055532e-07
1.57	0.0242395019070805	0.006497687507390138	0.8818088474375431	0.5296312967750003	-0.3182376066464219	-0.1787044268875736	-0.7324905590939459	0.6195548826091263	0.6195548826091127	-0.1252260040007544	-0.1738951424305224	0.1120314458548473	0.01439651740178536	0.3396232606430028	0.2724520087221657	0.3548867122498593	-1.981036052167368	0.1186239585621412	-0.6471893193473087	0.9554084469767283	-1.962826655712315	-1.962826655712252	-0.1462545428575197	0.01176764013879977	-0.4348408932229942	-0.01529084662231629	-0.1490226791335856	0.008411079372296473	-0.002975725437723399	-0.194690939108691	0.06613482570990442	0.04278275238848222	0.2309091666607605	-19.34697955265338	-18.0879330863846	5.736075289115329	-6.728944227821827	-642.7002510501544	-82.0796000323712	-20.47180956809072	-0.2207418839031698	0.5016529216708325	-0.885805659742206	0.4056136187290479	0.4766301833282379	0.01520436402155626	1.378499833421915	0.1720406939819676	0.1720406939800302	-0.1561884518687225	0.1143505845870125	0.1211848043464447	0.5482846029937469	8.054614678886408e-08	1.702714108719001e-06	-1.732419194727227e-07	2.03599252783389e-07	2.241501812119008e-07	5.447656480723672e-07	1.892363401059641e-07
1.58	0.02762413024004918	0.009246829448049353	0.88531284638326	0.5098442753324333	-0.3170273513449532	-0.1851738797866398	-0.7228690445747208	0.5999382776532257	0.5999382776532598	-0.1266957834843785	-0.1737706981996983	0.1076901575557129	0.01427150176251436	0.3372532187910314	0.2773322599767256	0.3458549339842939	-1.97609350886035	0.1234194694529226	-0.6466231320016483	0.9687399591386656	-1.960206466723978	-1.960206466723929	-0.1476699712328314	0.01312611164035443	-0.4333278808035133	-0.009698450363724033	-0.1414499975901456	0.00736396238276418	-0.003045038602103861	-0.1919375148692376	0.06735389198563861	0.04165553807499726	0.2237277617096026	-18.81021054684388	-17.702596745268	5.686325793928034	-6.62637644071346	-639.3453224496456	-81.86895870882282	-20.99522797135995	-0.2547552483132409	0.4739230970151423	-0.9205683527869024	0.5891366916551408	0.4880772754836655	0.1156721242660147	1.288803300446046	0.3556895274991562	0.3556895274991541	-0.122219833821601	0.1774645971842289	0.1847747061960141	0.5775028246869086	9.729939853872735e-08	1.69985048476642e-06	-2.876043153266477e-07	1.930369495228683e-07	2.514880471452661e-07	5.882749486711082e-07	2.022776488899664e-07
